<svg xmlns="http://www.w3.org/2000/svg" width="193.681" height="63.942" viewBox="0 0 193.681 63.942">
  <g id="AM_logo_H_RGB_tag" transform="translate(-32.62 -103.83)">
    <path id="Path_97" data-name="Path 97" d="M235.052,125.57c-2.935,0-4.853,1.693-4.853,4.2,0,1.756,1.044,3.16,4.232,4.4,1.792.711,2.44.972,2.44,1.756,0,.846-.648,1.369-1.99,1.369a10.135,10.135,0,0,1-4.691-1.432v3.061a11.621,11.621,0,0,0,4.889,1.08c3.124,0,5.177-1.657,5.177-4.295,0-2.053-1.107-3.034-3.934-4.295-2.314-1.008-2.836-1.4-2.836-2.017,0-.684.585-1.143,1.63-1.143a9.916,9.916,0,0,1,4.3,1.333V126.56a10.111,10.111,0,0,0-4.367-.99" transform="translate(-19.69 -2.167)" fill="#f0ece4"/>
    <path id="Path_98" data-name="Path 98" d="M226.765,116.77l-3.655,1.594v20.456h3.655Z" transform="translate(-18.984 -1.29)" fill="#f0ece4"/>
    <path id="Path_99" data-name="Path 99" d="M218.856,116.77l-3.646,1.594v20.456h3.646Z" transform="translate(-18.197 -1.29)" fill="#f0ece4"/>
    <path id="Path_100" data-name="Path 100" d="M210.926,125.52l-3.646,1.63v12.542h3.646Z" transform="translate(-17.406 -2.162)" fill="#f0ece4"/>
    <path id="Path_101" data-name="Path 101" d="M209.051,118.03a2.367,2.367,0,0,0-2.341,2.377,2.346,2.346,0,0,0,4.691,0,2.38,2.38,0,0,0-2.35-2.377" transform="translate(-17.35 -1.415)" fill="#f0ece4"/>
    <path id="Path_102" data-name="Path 102" d="M196.825,116.15h-.1l-7.842,16.089L181.1,116.15H181l-5.177,22.608H179.4l2.773-12.515,6.374,13h.4l6.419-12.866,2.827,12.38h3.817Z" transform="translate(-14.271 -1.228)" fill="#f0ece4"/>
    <path id="Path_103" data-name="Path 103" d="M165.166,120.85l-3.646,1.594v12.119c0,3.259,1.891,4.952,4.727,4.952a8.527,8.527,0,0,0,2.773-.45v-2.836a4.158,4.158,0,0,1-1.891.423,1.955,1.955,0,0,1-1.927-2.179v-5.933h3.709v-3h-3.745V120.85" transform="translate(-12.846 -1.696)" fill="#f0ece4"/>
    <path id="Path_104" data-name="Path 104" d="M152.318,125.55a6.6,6.6,0,0,0-5.249,2.377l-.36-1.756H143.72v13.514h3.574v-8.76a4.36,4.36,0,0,1,3.52-2.35c1.4,0,2.44.648,2.44,2.575v8.535H156.8v-9.319c.009-3.151-1.549-4.817-4.484-4.817" transform="translate(-11.072 -2.165)" fill="#f0ece4"/>
    <path id="Path_105" data-name="Path 105" d="M106.373,125.55a6.278,6.278,0,0,0-5.015,2.377l-.36-1.756H98v13.514h3.583v-8.607a4.813,4.813,0,0,1,4.358-2.341h.423V125.55" transform="translate(-6.516 -2.165)" fill="#f0ece4"/>
    <path id="Path_106" data-name="Path 106" d="M129.319,131.348a3.6,3.6,0,0,1,3.547-3.025c1.594,0,2.737,1.008,2.827,3.025h-6.374m3.547-5.8a6.986,6.986,0,0,0-7.167,7.23,7.122,7.122,0,0,0,7.527,7.356,13.185,13.185,0,0,0,5.276-1.044v-3.025a10.868,10.868,0,0,1-5.051,1.206c-2.413,0-3.907-1.242-4.2-3.52h9.706a9.777,9.777,0,0,0,.2-1.954,6.04,6.04,0,0,0-6.293-6.248" transform="translate(-9.276 -2.165)" fill="#f0ece4"/>
    <path id="Path_107" data-name="Path 107" d="M114.907,136.406c-2.116,0-3.808-1.495-3.808-4.4,0-3.025,1.828-4.619,4.2-4.619a4.735,4.735,0,0,1,2.377.549v7.752a4.806,4.806,0,0,1-2.773.72m6.419-19.636-3.646,1.594v6.771a7,7,0,0,0-2.764-.45,7.106,7.106,0,0,0-7.266,7.329c0,4.43,3,7.266,6.771,7.266a6.857,6.857,0,0,0,3.772-1.206l.288.756h2.836V116.77" transform="translate(-7.477 -1.29)" fill="#f0ece4"/>
    <path id="Path_108" data-name="Path 108" d="M80.242,131.78l3.484-7.815,3.421,7.815Zm3.745-15.63H83.9L73.3,138.758h3.817l1.729-3.88h9.67l1.693,3.88h3.97L83.987,116.15" transform="translate(-4.054 -1.228)" fill="#f0ece4"/>
    <path id="Path_109" data-name="Path 109" d="M56.177,127.53l-5.627,5.627v14.108h.081l8.247-8.193a23.127,23.127,0,0,0,3.971-4.907l-6.672-6.636" transform="translate(-1.787 -2.362)" fill="#c9a96e"/>
    <path id="Path_110" data-name="Path 110" d="M50.675,103.83H50.54v13.046L63.694,130h.027A15.808,15.808,0,0,0,64.972,124c0-4.16-2-8-6.05-12l-8.247-8.166" transform="translate(-1.786 0)" fill="#c9a96e"/>
    <path id="Path_111" data-name="Path 111" d="M46.944,103.83h-.108l-8.283,8.2c-3.79,3.763-5.933,7.851-5.933,12.29,0,4.457,2.161,8.544,5.978,12.362l8.283,8.229h.054V103.83" transform="translate(0 0)" fill="#c9a96e"/>
  </g>
</svg>
