<?xml version="1.0" encoding="UTF-8" standalone="no"?>
<svg xmlns:dc="http://purl.org/dc/elements/1.1/" xmlns:cc="http://creativecommons.org/ns#" xmlns:rdf="http://www.w3.org/1999/02/22-rdf-syntax-ns#" xmlns:svg="http://www.w3.org/2000/svg" xmlns="http://www.w3.org/2000/svg" viewBox="0 0 434.20001 164.54668" height="164.54668" width="434.20001" xml:space="preserve" id="svg2" version="1.1">
  <metadata id="metadata8"></metadata>
  <defs id="defs6"></defs>
  <g transform="matrix(1.3333333,0,0,-1.3333333,0,164.54667)" id="g10">
    <g transform="scale(0.1)" id="g12">
      <path id="path14" style="fill:#fcd405;fill-opacity:1;fill-rule:nonzero;stroke:none" d="M 2980.37,1148.89 H 272.938 c -103.524,0 -187.7544,-84.22 -187.7544,-187.749 V 275.402 C 85.1836,171.879 169.414,87.6484 272.938,87.6484 H 2980.37 c 103.53,0 187.74,84.2306 187.74,187.7536 v 685.739 c 0,103.529 -84.21,187.749 -187.74,187.749"></path>
      <path id="path16" style="fill:#fcd405;fill-opacity:1;fill-rule:nonzero;stroke:none" d="m 3197.68,275.402 c 0,-119.832 -97.49,-217.3122 -217.31,-217.3122 H 272.938 C 153.109,58.0898 55.6211,155.57 55.6211,275.402 v 685.739 c 0,119.829 97.4879,217.319 217.3169,217.319 H 2980.37 c 119.82,0 217.31,-97.49 217.31,-217.319 z M 2980.37,1204.52 H 272.938 C 138.523,1204.52 29.5664,1095.55 29.5664,961.141 V 275.402 C 29.5664,140.988 138.523,32.0313 272.938,32.0313 H 2980.37 c 134.4,0 243.37,108.9567 243.37,243.3707 v 685.739 c 0,134.409 -108.97,243.379 -243.37,243.379"></path>
      <path id="path18" style="fill:#231f20;fill-opacity:1;fill-rule:nonzero;stroke:none" d="M 2980.37,1234.08 H 272.938 C 122.441,1234.08 0,1111.64 0,961.145 V 275.402 C 0,124.898 122.441,2.46094 272.938,2.46094 H 2980.37 c 150.5,0 272.93,122.43706 272.93,272.94106 v 685.743 c 0,150.495 -122.43,272.935 -272.93,272.935 z m 0,-29.56 c 134.4,0 243.37,-108.97 243.37,-243.375 V 275.402 c 0,-134.414 -108.97,-243.3707 -243.37,-243.3707 H 272.938 C 138.523,32.0313 29.5664,140.988 29.5664,275.402 v 685.743 c 0,134.405 108.9566,243.375 243.3716,243.375 H 2980.37"></path>
      <path id="path20" style="fill:#231f20;fill-opacity:1;fill-rule:nonzero;stroke:none" d="m 288.559,453.617 h 28.726 c 28.719,0 41.645,19.625 41.645,49.793 0,35.899 -14.36,51.699 -38.297,51.699 h -32.074 z m -64.153,115.379 c 0,23.938 11.012,34.465 34.469,34.465 h 79.953 c 53.613,0 87.121,-28.242 87.121,-97.18 0,-54.582 -25.847,-101.015 -81.859,-101.015 H 288.559 V 285.59 c 0,-20.11 -14.84,-33.039 -32.075,-33.039 -17.23,0 -32.078,12.929 -32.078,33.039 v 283.406"></path>
      <path id="path22" style="fill:#231f20;fill-opacity:1;fill-rule:nonzero;stroke:none" d="m 523.18,457.453 h 24.89 c 25.852,0 44.043,11.485 44.043,48.828 0,34.461 -10.531,48.828 -41.172,48.828 H 523.18 Z m -64.153,111.543 c 0,23.938 11.012,34.465 34.469,34.465 h 88.086 c 57.926,0 77.555,-39.738 77.555,-88.566 0,-45.481 -12.449,-66.067 -41.653,-78.028 33.989,-11.972 39.739,-33.039 39.739,-73.25 v -36.855 c 0,-19.153 4.304,-36.391 4.304,-53.625 0,-10.047 -9.097,-20.586 -30.64,-20.586 -23.934,0 -38.293,10.058 -39.25,32.558 l -2.871,88.086 c -0.957,23.938 -12.93,35.899 -37.825,35.899 H 523.18 V 285.59 c 0,-20.11 -14.844,-33.039 -32.078,-33.039 -17.235,0 -32.075,12.929 -32.075,33.039 v 283.406"></path>
      <path id="path24" style="fill:#231f20;fill-opacity:1;fill-rule:nonzero;stroke:none" d="m 759.711,397.609 c 0,-84.257 12.445,-96.218 38.297,-96.218 25.847,0 38.297,11.961 38.297,96.218 v 72.762 c 0,74.203 -12.926,90.481 -38.297,90.481 -25.371,0 -38.297,-16.278 -38.297,-90.481 z m -67.02,72.762 c 0,126.391 51.7,141.227 105.317,141.227 53.617,0 105.316,-14.836 105.316,-141.227 v -72.762 c 0,-129.738 -45.957,-146.972 -105.316,-146.972 -59.36,0 -105.317,17.234 -105.317,146.972 v 72.762"></path>
      <path id="path26" style="fill:#231f20;fill-opacity:1;fill-rule:nonzero;stroke:none" d="m 1115.44,603.461 c 23.93,0 33.51,-12.441 33.51,-28.723 0,-16.281 -9.58,-28.718 -33.51,-28.718 h -50.75 V 285.59 c 0,-20.11 -14.84,-33.039 -32.07,-33.039 -17.24,0 -32.07,12.929 -32.07,33.039 v 260.43 h -50.749 c -23.938,0 -33.512,12.437 -33.512,28.718 0,16.282 9.574,28.723 33.512,28.723 h 165.639"></path>
      <path id="path28" style="fill:#231f20;fill-opacity:1;fill-rule:nonzero;stroke:none" d="m 1245.69,316.223 h 98.62 c 23.93,0 33.51,-12.442 33.51,-28.719 0,-16.281 -9.58,-28.723 -33.51,-28.723 H 1216 c -23.45,0 -34.46,10.528 -34.46,34.461 v 275.754 c 0,23.938 11.01,34.465 34.46,34.465 h 124.96 c 23.93,0 33.51,-12.441 33.51,-28.723 0,-16.281 -9.58,-28.718 -33.51,-28.718 h -95.27 v -79.473 h 89.04 c 23.94,0 33.51,-12.453 33.51,-28.723 0,-16.277 -9.57,-28.73 -33.51,-28.73 h -89.04 v -92.871"></path>
      <path id="path30" style="fill:#231f20;fill-opacity:1;fill-rule:nonzero;stroke:none" d="m 1398.92,455.051 c 0,121.601 33.51,156.547 110.59,156.547 63.67,0 96.7,-38.774 96.7,-86.164 0,-22.5 -8.14,-38.301 -32.55,-38.301 -24.9,0 -30.64,10.047 -34.47,38.777 -3.35,23.938 -12.93,34.942 -29.68,34.942 -29.2,0 -43.57,-12.918 -43.57,-115.848 v -19.152 c 0,-82.344 1.92,-124.461 41.65,-124.461 16.28,0 31.12,15.308 32.08,34.937 1.91,38.781 7.66,52.668 34.46,52.668 22.03,0 32.56,-14.844 32.56,-37.82 0,-71.809 -42.13,-100.539 -104.36,-100.539 -100.53,0 -103.41,82.82 -103.41,149.843 v 54.571"></path>
      <path id="path32" style="fill:#231f20;fill-opacity:1;fill-rule:nonzero;stroke:none" d="m 1824.07,603.461 c 23.94,0 33.52,-12.441 33.52,-28.723 0,-16.281 -9.58,-28.718 -33.52,-28.718 h -50.74 V 285.59 c 0,-20.11 -14.84,-33.039 -32.08,-33.039 -17.23,0 -32.07,12.929 -32.07,33.039 v 260.43 h -50.75 c -23.93,0 -33.51,12.437 -33.51,28.718 0,16.282 9.58,28.723 33.51,28.723 h 165.64"></path>
      <path id="path34" style="fill:#231f20;fill-opacity:1;fill-rule:nonzero;stroke:none" d="m 221.242,852.629 c 0,113.652 31.324,146.32 103.367,146.32 59.512,0 90.391,-36.25 90.391,-80.547 0,-21.031 -7.613,-35.797 -30.43,-35.797 -23.265,0 -28.636,9.403 -32.218,36.25 -3.133,22.379 -12.082,32.661 -27.743,32.661 -27.3,0 -40.718,-12.078 -40.718,-108.289 v -17.899 c 0,-76.961 1.793,-116.34 38.925,-116.34 15.215,0 29.086,14.325 29.985,32.664 1.785,36.246 7.152,49.223 32.215,49.223 20.586,0 30.425,-13.871 30.425,-35.352 0,-67.121 -39.375,-93.968 -97.546,-93.968 -93.965,0 -96.653,77.422 -96.653,140.058 v 51.016"></path>
      <path id="path36" style="fill:#231f20;fill-opacity:1;fill-rule:nonzero;stroke:none" d="M 507.578,815.941 V 694.223 c 0,-18.797 -13.875,-30.871 -29.984,-30.871 -16.106,0 -29.977,12.074 -29.977,30.871 v 272.058 c 0,18.793 13.871,30.875 29.977,30.875 16.109,0 29.984,-12.082 29.984,-30.875 v -102.91 h 78.754 v 102.91 c 0,18.793 13.871,30.875 29.977,30.875 16.109,0 29.98,-12.082 29.98,-30.875 V 694.223 c 0,-18.797 -13.871,-30.871 -29.98,-30.871 -16.106,0 -29.977,12.074 -29.977,30.871 v 121.718 h -78.754"></path>
      <path id="path38" style="fill:#231f20;fill-opacity:1;fill-rule:nonzero;stroke:none" d="m 740.656,722.859 h 92.18 c 22.375,0 31.324,-11.625 31.324,-26.847 0,-15.207 -8.949,-26.844 -31.324,-26.844 H 712.918 c -21.922,0 -32.215,9.844 -32.215,32.223 v 257.738 c 0,22.363 10.293,32.207 32.215,32.207 h 116.789 c 22.371,0 31.32,-11.637 31.32,-26.848 0,-15.203 -8.949,-26.843 -31.32,-26.843 h -89.051 v -74.274 h 83.235 c 22.367,0 31.32,-11.637 31.32,-26.859 0,-15.207 -8.953,-26.848 -31.32,-26.848 h -83.235 v -86.805"></path>
      <path id="path40" style="fill:#231f20;fill-opacity:1;fill-rule:nonzero;stroke:none" d="m 888.285,852.629 c 0,113.652 31.324,146.32 103.363,146.32 59.512,0 90.392,-36.25 90.392,-80.547 0,-21.031 -7.61,-35.797 -30.43,-35.797 -23.27,0 -28.64,9.403 -32.22,36.25 -3.14,22.379 -12.08,32.661 -27.742,32.661 -27.296,0 -40.722,-12.078 -40.722,-108.289 v -17.899 c 0,-76.961 1.793,-116.34 38.929,-116.34 15.215,0 29.085,14.325 29.985,32.664 1.79,36.246 7.16,49.223 32.21,49.223 20.59,0 30.43,-13.871 30.43,-35.352 0,-67.121 -39.37,-93.968 -97.542,-93.968 -93.965,0 -96.653,77.422 -96.653,140.058 v 51.016"></path>
      <path id="path42" style="fill:#231f20;fill-opacity:1;fill-rule:nonzero;stroke:none" d="m 1114.66,966.281 c 0,18.793 13.87,30.875 29.97,30.875 16.12,0 29.98,-12.082 29.98,-30.875 V 848.152 h 0.9 l 71.59,130.211 c 8.06,14.325 15.22,18.793 27.75,18.793 16.11,0 29.98,-10.742 29.98,-25.949 0,-6.719 -3.58,-16.105 -8.05,-23.273 l -58.62,-94.407 69.8,-143.64 c 3.58,-7.16 6.26,-14.313 6.26,-20.586 0,-14.313 -11.63,-25.949 -31.76,-25.949 -18.79,0 -24.61,8.507 -32.23,24.164 l -51,106.945 -24.62,-37.145 v -63.093 c 0,-18.797 -13.86,-30.871 -29.98,-30.871 -16.1,0 -29.97,12.074 -29.97,30.871 v 272.058"></path>
      <path id="path44" style="fill:#231f20;fill-opacity:1;fill-rule:nonzero;stroke:none" d="m 1615.3,991.336 c 22.37,0 31.33,-11.637 31.33,-26.848 0,-15.203 -8.96,-26.843 -31.33,-26.843 h -47.43 V 694.223 c 0,-18.797 -13.87,-30.871 -29.98,-30.871 -16.11,0 -29.98,12.074 -29.98,30.871 v 243.422 h -47.43 c -22.37,0 -31.33,11.64 -31.33,26.843 0,15.211 8.96,26.848 31.33,26.848 h 154.82"></path>
      <path id="path46" style="fill:#231f20;fill-opacity:1;fill-rule:nonzero;stroke:none" d="m 1721.3,798.93 c 0,-78.746 11.64,-89.942 35.8,-89.942 24.16,0 35.79,11.196 35.79,89.942 v 68.011 c 0,69.364 -12.07,84.575 -35.79,84.575 -23.71,0 -35.8,-15.211 -35.8,-84.575 z m -62.65,68.011 c 0,118.133 48.33,132.008 98.45,132.008 50.12,0 98.44,-13.875 98.44,-132.008 V 798.93 c 0,-121.258 -42.95,-137.375 -98.44,-137.375 -55.49,0 -98.45,16.117 -98.45,137.375 v 68.011"></path>
      <path id="path48" style="fill:#231f20;fill-opacity:1;fill-rule:nonzero;stroke:none" d="m 2947.52,471.379 c -48.63,0 -107.07,-6.262 -107.07,16.426 0,22.675 61.43,75.566 110.06,75.566 48.63,0 45.63,-91.992 -2.99,-91.992 z m -454.77,11.785 c -183.67,0 -420.66,120.649 -435.85,144.027 -27.92,42.969 -7.14,50.789 18,16.493 31.2,-38.457 214.75,-127.969 417.85,-127.969 208.25,0 391,99.004 418.24,127.969 25.13,34.296 45.92,26.476 17.99,-16.493 -15.18,-23.378 -252.56,-144.027 -436.23,-144.027 z m 281.51,-117.625 c -13.89,-27.832 -138.72,-54.297 -280.45,-54.297 -123.81,0 -266.56,26.465 -280.45,54.297 -59.22,118.652 122.2,60.031 280.45,57.512 158.25,2.519 339.67,61.14 280.45,-57.512 z m -734.16,105.84 c -48.63,0 -51.62,91.992 -2.99,91.992 48.62,0 110.05,-52.891 110.05,-75.566 0,-22.688 -58.43,-16.426 -107.06,-16.426 z m 161.7,501.785 c 73.06,11.383 546.42,6.875 583.32,0.863 37.53,-6.125 120.57,-164.14 112.84,-187.066 -7.36,-21.773 -803.7,-26.738 -807.24,1.746 -3.8,30.453 76.56,179.09 111.08,184.457 z m 851.79,-139.031 c -7.89,5.387 -17.03,7.726 -26.16,10.113 -14.48,3.789 -29.11,6.317 -44.22,5.59 -20.23,-0.977 -28.49,-8.492 -29.61,-28.379 -0.65,-11.641 0.11,-23.348 -0.44,-34.996 -0.28,-6.027 -2.03,-11.996 -3.11,-17.988 -0.52,0.007 -1.04,0.015 -1.55,0.023 -3.19,7.645 -6.17,15.371 -9.58,22.918 -22.25,49.164 -44.13,98.5 -67.11,147.344 -11.5,24.414 -25.62,47.644 -43.39,68.402 -7.46,8.72 -15.91,16.78 -24.71,24.25 -8.12,6.89 -17.66,10.74 -28.15,12.28 -116.17,29.18 -558.05,33.22 -592.5,-13.25 -3.38,-2.83 -6.56,-5.99 -9.5,-9.49 -25.24,-30.067 -46.67,-62.595 -63.41,-97.794 -23.14,-48.621 -45.56,-97.562 -68.31,-146.363 -0.74,-1.59 -1.55,-3.156 -2.56,-5.219 -3.77,6.543 -5.01,12.965 -4.64,19.914 0.68,13.133 1.74,26.274 -1.05,39.364 -2.48,11.652 -9.46,18.105 -21.65,19.746 -22.2,2.988 -43.13,-1.942 -63.65,-9.473 -2.51,-0.918 -4.97,-1.941 -7.42,-2.996 -5.45,-2.352 -9.87,-5.734 -11.91,-11.438 0,-2.468 0,-4.945 0,-7.418 0.94,-4.367 1.91,-8.73 2.81,-13.105 3.93,-19.004 17.75,-28.133 35.53,-32.832 6.2,-1.629 12.82,-1.676 19.18,-2.758 2.08,-0.355 4.11,-1.504 5.94,-2.629 5.64,-3.484 7.11,-9.89 10.61,-14.875 4.51,-6.437 7.99,-13.547 12.38,-20.078 1.92,-2.883 1.3,-4.687 -0.46,-7.141 -14.71,-20.453 -29.37,-40.925 -43.88,-61.507 -6.05,-8.59 -11.61,-17.504 -17.51,-26.196 -10.17,-15.011 -13.17,-32.078 -15.25,-49.418 -4.35,-36.3 -6.77,-72.714 -5.84,-109.269 0.55,-21.395 1.77,-42.781 3.23,-64.141 1.37,-20.117 3.74,-40.168 5.11,-60.273 1.01,-14.746 2.39,-88.977 3.66,-98.074 0.97,-7.012 3.01,-13.879 4.47,-20.821 1.33,-6.304 2.9,-12.597 3.71,-18.965 1.41,-11.3 8.8,-19.011 16.96,-25.703 3.86,-3.168 10.05,-7.847 15.29,-8.09 24.02,-1.117 48.05,-0.386 72.05,0.872 6.6,0.351 13.22,1.269 19.73,2.492 8.07,1.508 12.91,26.218 17.63,32.117 1.21,1.512 10.12,6.262 14.99,6.5 11.25,0.582 42.39,3.223 47.89,7.512 4.36,3.422 5.05,21.722 6.77,21.711 25.16,-0.11 644.54,0 657.37,0 2.74,0 4.58,-19.817 12.75,-23.524 5.21,-2.379 24.65,-6.469 37.4,-5.699 9.15,0.562 14.86,-3.449 20.27,-9.57 3.57,-4.028 7.47,-23.68 11.89,-26.77 2.92,-2.051 6.94,-3.051 10.61,-3.59 23.46,-3.429 47.07,-2.32 70.65,-1.711 3.11,0.09 6.24,0.282 9.34,0.09 15.65,-0.937 25.53,6.844 31.85,19.844 2.87,5.906 5.98,11.808 7.84,18.019 1.64,5.457 1.6,11.379 2.45,17.063 1.2,8.133 2.74,16.211 3.75,24.355 0.85,6.844 1.38,13.739 1.63,20.625 0.95,27.43 1.5,54.883 2.71,82.293 0.57,12.871 2.41,25.684 3.48,38.536 1.18,14.355 2.84,28.718 3.03,43.105 0.4,31.836 0.44,63.691 -0.2,95.527 -0.43,21.379 -1.84,42.746 -6.32,63.809 -2.57,12.082 -7.18,23.144 -14.27,33.414 -19.02,27.539 -37.75,55.27 -56.75,82.82 -1.97,2.848 -1.82,4.813 -0.04,7.575 5.53,8.589 10.82,17.335 16.08,26.078 0.85,1.414 1.11,3.164 1.82,5.304 0.51,0.243 2.2,0.532 2.91,1.5 4.55,6.262 11.58,6.153 18.23,6.946 9.02,1.082 17.74,2.91 25.65,7.593 11.5,6.821 17.62,16.969 19.82,29.61 0.7,4.047 1.14,8.14 1.98,12.16 1.29,6.195 -1.23,10.66 -6.3,14.129"></path>
      <path id="path50" style="fill:#231f20;fill-opacity:1;fill-rule:nonzero;stroke:none" d="M 2980.37,1178.46 H 272.938 c -119.829,0 -217.3169,-97.49 -217.3169,-217.315 V 275.402 C 55.6211,155.57 153.109,58.0898 272.938,58.0898 H 2980.37 c 119.82,0 217.31,97.4802 217.31,217.3122 v 685.743 c 0,119.825 -97.49,217.315 -217.31,217.315 z m 0,-29.57 c 103.53,0 187.74,-84.22 187.74,-187.745 V 275.402 c 0,-103.523 -84.21,-187.7536 -187.74,-187.7536 H 272.938 c -103.524,0 -187.7544,84.2306 -187.7544,187.7536 v 685.743 c 0,103.525 84.2304,187.745 187.7544,187.745 H 2980.37"></path>
      <path id="path52" style="fill:#231f20;fill-opacity:1;fill-rule:nonzero;stroke:none" d="m 3218.97,33.6016 h 3.5 c 4.08,0 7.38,1.3398 7.38,4.6367 0,2.9101 -2.14,4.8633 -6.79,4.8633 -1.94,0 -3.31,-0.2032 -4.09,-0.3828 z m -0.18,-18.0703 h -7.38 v 31.8398 c 2.91,0.5898 6.99,0.9687 12.23,0.9687 6.02,0 8.73,-0.9687 11.07,-2.3203 1.74,-1.3593 3.1,-3.8984 3.1,-6.9882 0,-3.5 -2.71,-6.2227 -6.6,-7.3907 v -0.3789 c 3.11,-1.1719 4.85,-3.5 5.82,-7.7734 0.98,-4.8477 1.55,-6.7969 2.33,-7.957 h -7.95 c -0.98,1.1601 -1.56,4.0703 -2.52,7.7578 -0.59,3.5 -2.53,5.0625 -6.62,5.0625 h -3.48 z m -19.61,16.6992 c 0,-14.1719 10.49,-25.44144 24.85,-25.44144 13.98,0 24.26,11.26954 24.26,25.24224 0,14.1679 -10.28,25.6289 -24.46,25.6289 -14.16,0 -24.65,-11.461 -24.65,-25.4297 z m 57.27,0 c 0,-18.0586 -14.18,-32.2422188 -32.62,-32.2422188 -18.24,0 -32.81,14.1836188 -32.81,32.2422188 0,17.6601 14.57,31.8281 32.81,31.8281 18.44,0 32.62,-14.168 32.62,-31.8281"></path>
    </g>
  </g>
</svg>
