<svg width="118" height="34" viewBox="0 0 118 34" fill="none" xmlns="http://www.w3.org/2000/svg">
<g clip-path="url(#clip0_589_7803)">
<path d="M62.8143 9.05755C62.6505 9.25652 62.5579 9.47871 62.5579 9.86505V20.4877H62.4992C62.4992 20.4877 56.6994 10.1221 56.4191 9.64286C56.2206 9.30295 55.9989 9.06916 55.707 8.8934C55.4151 8.73007 55.1116 8.62478 54.5285 8.62478H52.6148C52.1707 8.62478 51.8912 8.7765 51.6927 9.01112C51.529 9.20927 51.4355 9.43228 51.4355 9.81779V24.8751C51.4355 25.2614 51.529 25.4836 51.6927 25.6826C51.8912 25.9164 52.1707 26.0681 52.6148 26.0681H53.6999C54.1431 26.0681 54.4235 25.9164 54.622 25.6826C54.7849 25.4836 54.8783 25.2614 54.8783 24.8751V13.9946H54.9371C54.9371 13.9946 60.9585 24.6877 61.2041 25.0857C61.5423 25.647 62.1138 26.0681 62.9309 26.0681H64.7867C65.23 26.0681 65.5103 25.9164 65.7088 25.6826C65.8717 25.4836 65.9652 25.2614 65.9652 24.8751V11.2919H90.3444C90.5901 11.2919 90.7761 11.2222 90.9167 11.1053C91.0681 10.9644 91.1384 10.777 91.1384 10.4968V9.4671C91.1384 9.18605 91.0681 8.99869 90.9167 8.85858C90.7761 8.74168 90.5901 8.67121 90.3444 8.67121H63.7364C63.2931 8.67121 63.0128 8.82376 62.8143 9.05755ZM73.4578 13.0818C69.408 13.0818 67.1321 16.2529 67.1321 19.599C67.1321 23.1672 69.5717 26.3027 73.481 26.3027C75.4302 26.3027 77.3439 25.5657 78.4405 24.2666C78.9194 23.7053 79.3048 22.921 79.3048 22.4418C79.3048 22.2777 79.2692 22.1376 79.1766 22.0323C79.0831 21.9154 78.9425 21.8449 78.6977 21.8449H76.8188C76.445 21.8449 76.1886 21.985 76.0017 22.2661C75.4534 23.0736 74.6595 23.4947 73.4926 23.4947C71.7418 23.4947 70.6105 22.1608 70.5286 20.6983H78.6514C79.0128 20.6983 79.2692 20.6162 79.4445 20.4413C79.643 20.2539 79.7364 19.9845 79.7364 19.4813C79.7364 17.9492 79.2576 16.3582 78.2545 15.1412C77.2273 13.9125 75.6635 13.0818 73.4578 13.0818ZM85.9795 13.0818C82.7823 13.0818 80.6817 14.6031 80.6817 17.0364C80.6817 17.9019 80.9968 18.6041 81.5104 19.1538C82.1058 19.798 82.9576 20.2423 84.1948 20.5582L86.8669 21.2364C87.6021 21.4237 88.2554 21.6459 88.2554 22.2893C88.2554 23.2841 87.2051 23.6232 86.0854 23.6232C85.5362 23.6232 84.9648 23.5179 84.4975 23.2841C84.1708 23.12 83.8913 22.8862 83.6928 22.5703C83.5175 22.3009 83.4596 22.1019 83.1908 21.9502C83.0271 21.8565 82.8286 21.8449 82.5607 21.8449H81.1134C80.7983 21.8449 80.647 21.9386 80.542 22.0671C80.4369 22.1956 80.4014 22.383 80.4014 22.5703C80.4014 23.0379 80.5651 23.6232 80.9505 24.1497C81.837 25.3427 83.6928 26.3027 86.0614 26.3027C88.396 26.3027 91.6288 25.3311 91.6288 22.1956C91.6288 21.3889 91.3947 20.6983 90.963 20.137C90.4147 19.4232 89.6332 18.9316 88.3026 18.5925L85.6537 17.9135C84.5562 17.6333 84.0427 17.4343 84.0427 16.7553C84.0427 16.1004 84.6265 15.5739 85.9795 15.5739C86.7734 15.5739 87.4971 15.7497 87.9643 16.2413C88.3489 16.6509 88.2794 16.8614 88.5829 17.0248C88.769 17.1185 88.979 17.1185 89.3065 17.1185H90.6248C90.8348 17.1185 90.987 17.0836 91.1028 16.9543C91.1971 16.849 91.255 16.6857 91.255 16.4162C91.255 15.8077 90.858 15.0243 90.1584 14.4273C89.2247 13.6198 87.7543 13.0818 85.9795 13.0818ZM93.2505 13.527H92.5972C92.3524 13.527 92.1655 13.5966 92.0257 13.7135C91.8736 13.8545 91.8033 14.0418 91.8033 14.3221V15.1296C91.8033 15.4106 91.8736 15.5971 92.0257 15.7381C92.1655 15.855 92.3524 15.9254 92.5972 15.9254H93.2505V21.7628C93.2505 23.2601 93.6591 24.1961 94.4174 24.9456C95.1179 25.6353 96.0284 26.0681 97.6155 26.0681H98.607C98.8527 26.0681 99.0387 25.9985 99.1793 25.8816C99.3307 25.7406 99.4241 25.5533 99.4241 25.273V24.255C99.4241 23.9739 99.3307 23.7874 99.1793 23.6464C99.0387 23.5295 98.8527 23.4591 98.607 23.4591H98.4673C97.8371 23.4591 97.4054 23.2957 97.1135 23.0147C96.7636 22.6872 96.5883 22.184 96.5883 21.529V15.9254H98.7129C98.9577 15.9254 99.1446 15.855 99.2844 15.7381C99.4357 15.5971 99.506 15.4106 99.506 15.1296V14.3221C99.506 14.0418 99.4357 13.8545 99.2844 13.7135C99.1446 13.5966 98.9577 13.527 98.7129 13.527H96.5999V9.71251C96.5999 9.40824 96.5064 9.18605 96.3667 9.01112C96.1914 8.80054 95.9466 8.67121 95.5852 8.67121H94.2661C93.9039 8.67121 93.6591 8.80054 93.4837 9.01112C93.344 9.18605 93.2505 9.40824 93.2505 9.71251V13.527ZM100.393 25.0268C100.393 25.3311 100.486 25.5533 100.627 25.729C100.801 25.9396 101.047 26.0681 101.408 26.0681H102.797C103.159 26.0681 103.404 25.9396 103.579 25.729C103.719 25.5533 103.812 25.3311 103.812 25.0268V9.71333C103.812 9.40907 103.719 9.18688 103.579 9.01112C103.404 8.80054 103.159 8.67121 102.797 8.67121H101.408C101.047 8.67121 100.801 8.80054 100.627 9.01112C100.486 9.18688 100.393 9.40907 100.393 9.71333V25.0268ZM70.5517 18.2062C70.7031 16.7669 71.8005 15.6908 73.4694 15.6908C75.1036 15.6908 76.2349 16.7669 76.3871 18.2062H70.5517ZM116.451 11.2919C116.696 11.2919 116.883 11.2222 117.023 11.1053C117.175 10.9644 117.245 10.777 117.245 10.4968V9.40824C117.245 8.98708 117.163 8.7765 117.023 8.62478C116.895 8.48384 116.685 8.4026 116.451 8.4026C116.264 8.4026 116.078 8.42581 115.763 8.46063L106.45 9.38503C106.182 9.40824 106.053 9.49032 105.96 9.59561C105.855 9.71251 105.808 9.86505 105.808 10.0756V10.6833C105.808 10.918 105.855 11.0232 105.937 11.1169C106.041 11.2338 106.193 11.2919 106.403 11.2919H116.451ZM111.305 13.0818C107.255 13.0818 104.979 16.2529 104.979 19.599C104.979 23.1672 107.419 26.3027 111.328 26.3027C113.277 26.3027 115.191 25.5657 116.288 24.2666C116.766 23.7053 117.152 22.921 117.152 22.4418C117.152 22.2777 117.116 22.1376 117.023 22.0323C116.93 21.9154 116.79 21.8449 116.545 21.8449H114.666C114.292 21.8449 114.036 21.985 113.849 22.2661C113.3 23.0736 112.507 23.4947 111.34 23.4947C109.589 23.4947 108.457 22.1608 108.376 20.6983H116.522C116.883 20.6983 117.14 20.6162 117.315 20.4413C117.513 20.2539 117.607 19.9845 117.607 19.4813C117.607 17.9492 117.128 16.3582 116.125 15.1412C115.098 13.9125 113.51 13.0818 111.305 13.0818ZM108.399 18.2062C108.551 16.7669 109.648 15.6908 111.316 15.6908C112.951 15.6908 114.082 16.7669 114.234 18.2062H108.399Z" fill="white"/>
<path d="M38.2733 11.4324C35.2523 6.91486 32.5976 5.39271 31.8508 4.6764C31.0304 3.88632 30.4052 2.99094 30.0074 2.55983C29.1225 1.59066 27.9771 0.394333 26.0932 0.394333C24.2746 0.394333 23.073 1.58237 22.6826 2.60874C22.5694 2.9014 22.48 3.25955 22.399 3.38971C22.2204 3.6832 21.4165 5.0586 21.0832 5.60412H22.5859L21.8548 6.98781C22.7075 6.80044 23.3161 6.66199 24.1283 6.66199C24.8511 6.66199 25.3704 6.83361 25.5978 7.28876C26.0204 8.13605 26.0204 10.6995 26.735 12.6295C27.4007 14.4435 29.0249 16.2185 30.8518 17.5782C30.8758 17.5939 30.9006 17.6022 30.9328 17.6022C31.0222 17.6022 31.0792 17.5375 31.0792 17.472C31.0792 17.4231 31.0627 17.3908 31.0222 17.3502C29.4955 15.8197 28.2534 14.1268 27.5876 12.2714C26.9293 10.464 27.0352 7.92381 26.4588 6.79215C26.0767 6.04352 25.2654 5.84869 24.5178 5.84869C23.9174 5.84869 23.3567 5.97056 23.097 6.02694L23.7544 4.91186H22.6421C22.8778 4.49733 23.121 4.11431 23.2434 3.88632C23.3484 3.69066 23.3897 3.44692 23.5196 3.11364C23.9413 2.04664 24.875 1.37096 26.0932 1.37096C27.6199 1.37096 28.513 2.35588 29.3979 3.3408C29.804 3.79678 30.4697 4.74936 31.2413 5.45738C31.7689 5.94569 32.7762 6.49121 34.3269 8.09543C35.22 9.02314 36.2596 10.2278 37.3554 11.8394C41.2778 17.5939 43.8515 22.6653 45.2888 26.6215L45.2648 26.6381C41.148 23.8375 37.5828 21.192 34.7089 17.928C32.6704 15.6083 30.9006 12.9222 29.3574 9.49488C29.2515 9.26689 29.1631 9.05548 29.0655 8.83578C29.0249 8.74624 28.9844 8.72137 28.9191 8.72137C28.838 8.72137 28.781 8.77857 28.781 8.85982C28.781 8.94936 28.8215 9.14502 28.9108 9.5355C29.7312 13.0847 32.0046 16.2674 34.4327 18.9129C36.8525 21.5427 39.5883 23.8052 41.8377 25.4501L43.5918 30.4799C43.6323 30.6026 43.6811 30.7328 43.6811 30.8547C43.6811 30.9442 43.6563 31.0172 43.6001 31.0661C43.5513 31.115 43.4868 31.1399 43.3404 31.1399H42.8128C42.5853 31.1399 42.4952 31.1067 42.4141 31.042C42.3331 30.9765 42.2769 30.8787 42.2355 30.7651C42.0817 30.2926 41.1554 27.647 40.9776 27.1098C40.9446 27.0128 40.8875 26.9797 40.823 26.9797C40.7419 26.9797 40.6849 27.0452 40.6849 27.1181C40.6849 27.1836 40.7089 27.2566 40.7502 27.4846C40.9851 28.6892 41.2613 30.0405 41.3746 30.5537C41.4242 30.7892 41.4805 31.0097 41.4805 31.1722C41.4805 31.3181 41.4482 31.4002 41.3266 31.5221L40.7825 32.0759C40.6526 32.206 40.579 32.2384 40.474 32.2384C40.3442 32.2384 40.2383 32.1488 40.1895 31.9208C39.5726 29.0307 38.6389 25.45 38.3949 24.456C38.3378 24.2371 38.2973 24.1144 38.1675 24.1144C38.0542 24.1144 38.0137 24.1957 38.0137 24.2935C38.0137 24.3665 38.0294 24.456 38.0376 24.5215C38.184 25.547 38.777 29.2836 39.4179 32.6943C39.532 33.2805 39.7512 33.6055 40.2548 33.6055C40.4823 33.6055 40.7006 33.5159 40.904 33.3211C41.2373 32.987 41.3341 32.8975 41.7327 32.507C42.0164 32.2301 42.2115 32.1165 42.6986 32.1165H43.9003C44.1848 32.1165 44.3386 32.0435 44.4767 31.9125C44.6065 31.7907 44.6876 31.6199 44.6876 31.3753C44.6876 31.1233 44.6231 30.9202 44.5338 30.6673C44.2253 29.8374 43.2345 27.0286 42.9418 26.2393L42.9666 26.2227C43.9813 26.9962 45.4592 27.9812 46.1092 27.9812C46.3118 27.9812 46.4342 27.8916 46.4342 27.5741C46.4342 26.0768 43.9491 19.9144 38.2733 11.4324Z" fill="white"/>
<path d="M10.3976 1.97357C10.5679 1.59884 10.9417 1.33852 11.3883 1.33852C11.997 1.33852 12.4841 1.81108 12.4841 2.43784C12.4841 2.80346 12.3137 3.12181 12.0458 3.31664C12.1028 3.52888 12.1434 3.71542 12.1434 3.8945C12.1434 4.57847 11.7373 5.05849 10.9905 5.31135C10.8929 5.72588 10.7143 6.10061 10.4215 6.37752C9.93444 6.84925 9.43906 6.84925 9.43906 7.04491C9.43906 7.15102 9.51267 7.21569 9.71528 7.21569C10.6167 7.21569 11.5016 6.71163 11.6075 5.87262C12.4684 5.57996 12.9877 4.70863 12.9877 4.01719C12.9877 3.83729 12.9712 3.68309 12.8984 3.53717C13.1341 3.30835 13.4103 2.91787 13.4103 2.34002C13.4103 1.83512 13.1904 1.32276 12.8008 0.948031C12.4601 0.613922 11.9804 0.394223 11.4206 0.394223C10.6084 0.394223 10.0808 0.834451 9.78062 1.26556C8.89489 1.26556 7.75032 2.25048 7.75032 3.65904H7.62875C7.54688 3.17073 7.04406 2.84408 6.62146 2.82004C6.28073 1.7945 5.50914 0.915698 4.24217 0.915698C4.09661 0.915698 3.91798 0.923988 3.76333 0.948031C3.39035 0.605632 2.97602 0.394223 2.3996 0.394223C1.29472 0.394223 0.393288 1.28214 0.393288 2.40468C0.393288 3.10523 0.71003 3.58526 1.31126 4.0089C1.31126 4.0089 1.30299 4.09844 1.30299 4.13907C1.30299 5.03445 2.2772 6.43472 3.72281 6.43472C3.72281 6.66188 4.0073 6.97195 4.32404 7.02832V7.14273H4.20164C2.2127 7.14273 1.36833 8.10361 1.36833 8.74613C0.775364 8.9907 0.393288 9.6498 0.393288 10.26C0.393288 11.4729 1.27901 12.3359 2.44839 12.3359C2.83791 12.3359 3.2357 12.1817 3.51192 11.9695C3.71454 12.0425 3.97422 12.0831 4.24217 12.0831C4.80288 12.0831 5.42809 11.8882 5.8664 11.2449C5.93174 11.2532 5.98797 11.2532 6.05331 11.2532C6.76784 11.2532 7.38478 10.7806 7.7098 10.1622C7.79084 10.0079 7.8231 9.88608 7.8231 9.79571C7.8231 9.707 7.78257 9.63322 7.69326 9.63322C7.57996 9.63322 7.56342 9.73934 7.3608 9.9267C6.90595 10.3421 6.20713 10.4963 5.4926 10.4963C5.1436 11.0094 4.71356 11.2781 4.21818 11.2781C3.85265 11.2781 3.56898 11.1802 3.27623 10.9846C3.04053 11.2449 2.7486 11.351 2.46411 11.351C1.82318 11.351 1.36833 10.9033 1.36833 10.2517C1.36833 9.79571 1.66026 9.38947 2.06632 9.23444C2.13909 8.4286 3.00001 7.88308 4.0718 7.88308C4.20991 7.88308 4.34802 7.89137 4.4944 7.90795C4.6565 7.64763 5.04602 7.37072 5.59845 7.29694C5.71258 7.28119 5.80107 7.2729 5.8664 7.24056C5.93174 7.2074 5.96399 7.14273 5.96399 7.06895C5.96399 7.00428 5.93918 6.94708 5.87467 6.90645C5.81761 6.87412 5.72002 6.85837 5.60672 6.8335C5.09481 6.73567 4.48613 6.41814 4.17766 5.64463C2.95121 5.64463 2.04978 4.65971 2.04978 3.55292V3.47997C1.64372 3.31664 1.36833 2.92616 1.36833 2.46189C1.36833 1.8517 1.84716 1.36339 2.45584 1.36339C2.82137 1.36339 3.13812 1.54246 3.34156 1.81108C3.51192 1.76216 3.70627 1.74558 3.89317 1.74558C4.80288 1.74558 5.77709 2.32343 5.96399 3.4468C7.13337 3.55292 7.40959 4.54613 7.48237 4.96149C7.52289 5.1729 7.55515 5.35197 7.69326 5.35197C7.83964 5.35197 7.87189 5.18865 7.92068 4.96895C8.01 4.55442 8.16465 4.22031 8.47312 3.95999C8.47312 2.893 9.2687 1.97357 10.3976 1.97357Z" fill="white"/>
<path d="M12.7604 8.35548C12.3783 8.901 12.1029 9.16961 11.2337 10.1952C10.0891 11.5548 9.48789 12.6541 8.48887 15.0957C8.65179 15.0791 8.88749 15.0634 9.14717 15.0634C9.27701 15.0634 9.38204 15.0634 9.55323 15.0708L9.6748 14.8105C10.2355 13.6059 10.9897 11.9776 12.0458 10.7241L12.4114 10.293C13.4989 9.01541 14.1729 8.25765 14.5955 6.51581C14.7419 5.89733 14.8634 5.34435 15.2778 4.94475C15.6507 4.5866 16.1221 4.43239 16.601 4.43239C17.007 4.43239 17.308 4.53022 17.7464 4.71676C18.1441 4.88754 18.2897 4.9207 18.7123 4.9207C18.8587 4.9207 18.9637 4.91241 19.0613 4.90412L18.4931 5.66934L19.2647 6.21486C18.298 6.49923 17.7869 7.43606 17.6157 7.86717C17.5834 7.95671 17.5677 8.01391 17.5677 8.07112C17.5677 8.13661 17.6 8.20128 17.6976 8.20128C17.8026 8.20128 17.8836 8.12003 18.0218 7.95671C18.4931 7.38715 18.867 6.99583 20.6037 6.45114L19.378 5.5226L20.3035 4.16378H19.4351C18.8827 4.16378 18.5171 4.15549 18.0383 3.93579C17.3883 3.63484 17.0558 3.50468 16.4794 3.50468C15.7731 3.50468 15.1314 3.75671 14.6037 4.24502C13.9942 4.8063 13.8073 5.55576 13.589 6.37818C13.4178 7.01241 13.2152 7.71296 12.7604 8.35548Z" fill="white"/>
<path d="M14.6279 13.8986C14.1648 14.5254 13.5313 15.347 13.0442 16.2183C13.1988 16.2921 13.7107 16.569 13.8894 16.666C14.4492 15.8196 15.2291 14.7783 15.7402 13.9882C16.2033 13.2719 16.3902 12.9626 16.4225 12.0017C16.4307 11.8393 16.4307 11.6842 16.4465 11.53C16.487 11.0334 16.6176 10.5285 17.0882 10.0651C17.4372 9.71439 17.9409 9.53614 18.4445 9.53614C18.9316 9.53614 19.2153 9.67376 19.6379 9.67376C19.9381 9.67376 20.1572 9.60081 20.3524 9.52785L20.507 9.47064L20.1332 10.3669L21.0099 10.7242C20.45 11.074 19.2235 12.5804 19.2235 14.3629C19.2235 15.0062 19.3211 15.5999 19.4592 16.1288C19.4758 16.186 19.508 16.2432 19.5973 16.2432C19.6784 16.2432 19.7355 16.1943 19.7437 16.1047L19.752 15.9174C19.776 15.3719 19.8165 14.5096 20.0357 13.7361C20.4012 12.4337 21.3837 11.2125 22.3662 10.6263L20.9693 10.0162L21.5706 8.54293L20.9131 8.68138C20.5153 8.76263 20.2226 8.83559 19.8736 8.83559C19.6461 8.83559 19.3865 8.80325 19.078 8.72947C18.8423 8.67309 18.5901 8.62418 18.2336 8.62418C17.5919 8.62418 16.9013 8.86792 16.4307 9.3239C15.5698 10.1463 15.521 11.0334 15.464 11.8235C15.3912 12.8731 15.196 13.1334 14.6279 13.8986Z" fill="white"/>
<path d="M35.4637 14.3949C35.4067 14.3219 35.3579 14.2888 35.2934 14.2888C35.1958 14.2888 35.147 14.3543 35.147 14.4272C35.147 14.5416 35.228 14.6801 35.4315 15.0225C36.0484 16.0721 36.8118 17.13 37.7537 18.124C38.7685 19.2059 39.9618 20.2149 41.2371 21.1185L41.6349 21.3954C41.6919 21.4369 41.7324 21.4609 41.7812 21.4609C41.8623 21.4609 41.9193 21.3797 41.9193 21.3142C41.9193 21.2736 41.9028 21.2321 41.854 21.1915C40.6689 20.1096 39.3937 18.7905 38.2003 17.5213C37.2658 16.5198 36.3081 15.4619 35.4637 14.3949Z" fill="white"/>
<path d="M9.33375 10.708C9.45532 10.5049 9.82086 10.0083 9.96724 9.85325C9.34202 8.58397 8.31902 7.37106 7.87243 6.89021L7.49863 7.25665C7.9295 7.88342 8.65147 9.09632 9.33375 10.708Z" fill="white"/>
<path d="M3.38186 3.35703C3.30826 3.29154 3.29255 3.25091 3.29255 3.202C3.29255 3.14562 3.33307 3.08013 3.42239 3.08013C3.45464 3.08013 3.48689 3.08842 3.52824 3.105C4.12865 3.34874 4.64056 3.63394 5.09542 3.9838C5.47667 4.27646 5.85047 4.63544 6.21518 5.06655L5.87446 5.45703C5.45268 5.10634 4.08813 3.95976 3.38186 3.35703Z" fill="white"/>
<path d="M9.1389 6.08398L8.70059 5.81537C8.98425 5.13969 9.33408 4.52121 9.74758 4.05694C10.0403 3.72366 10.3166 3.45422 10.625 3.18644C10.6978 3.12923 10.7383 3.08032 10.8111 3.08032C10.893 3.08032 10.95 3.14581 10.95 3.21048C10.95 3.24281 10.9335 3.28344 10.9013 3.33235C10.4059 4.10586 9.43911 5.63629 9.1389 6.08398Z" fill="white"/>
<path d="M3.63367 9.86126C3.52781 9.90189 3.47902 9.92676 3.42278 9.92676C3.33347 9.92676 3.29212 9.85297 3.29212 9.79577C3.29212 9.73939 3.31693 9.70706 3.37399 9.65731C4.37218 8.87634 5.24964 8.56711 6.45954 8.36316L6.6051 8.8523L3.63367 9.86126Z" fill="white"/>
<path d="M24.4611 3.54441C24.4611 3.25922 24.6075 2.74603 25.1351 2.74603C25.3138 2.74603 25.4841 2.78665 25.6222 2.85215C25.8174 2.94169 25.9473 3.07185 25.9473 3.2103C25.9473 3.35704 25.8009 3.50379 25.5817 3.68286C25.3543 3.8694 25.0624 4.04102 24.8267 4.04102C24.543 4.04102 24.4611 3.77157 24.4611 3.54441Z" fill="white"/>
<path d="M16.2194 5.92108C16.2194 5.57122 16.4303 5.18819 16.8364 5.18819C17.015 5.18819 17.2259 5.26115 17.3806 5.40872C17.4699 5.48997 17.5104 5.57868 17.5104 5.66905C17.5104 5.8647 17.3235 6.05124 17.1043 6.1814C16.934 6.27923 16.7553 6.34473 16.6015 6.34473C16.3493 6.34473 16.2194 6.18886 16.2194 5.92108Z" fill="white"/>
<path d="M18.1277 10.9438C18.1277 10.8626 18.1359 10.7647 18.1682 10.6669C18.2335 10.4555 18.3708 10.2516 18.7124 10.2516C18.867 10.2516 19.0366 10.2922 19.1747 10.3908C19.2971 10.4721 19.3459 10.5774 19.3459 10.6835C19.3459 11.0334 18.7612 11.4404 18.4684 11.4404C18.2575 11.4404 18.1277 11.2365 18.1277 10.9438Z" fill="white"/>
<path d="M14.9284 21.2168C13.8326 21.2168 13.3447 20.6962 13.3447 20.0371C13.3447 18.8805 15.3667 17.7497 17.1853 17.0491L17.6567 17.6601C16.5361 18.107 14.2792 19.0687 14.2792 19.8986C14.2792 20.1913 14.4496 20.4035 15.131 20.4035C16.3169 20.4035 17.5922 19.8248 18.769 19.247C18.8583 19.2063 18.9642 19.1657 19.0618 19.1657C19.2156 19.1657 19.3132 19.2146 19.4265 19.3771L19.6216 19.6457C18.2496 20.4035 16.5361 21.2168 14.9284 21.2168Z" fill="white"/>
<path d="M17.9492 21.5258C16.8774 22.1276 15.765 22.5273 14.7826 22.5273C13.6859 22.5273 12.7117 22.0547 11.8996 20.8252C11.5589 20.3046 11.2909 19.6537 10.9659 19.0759C10.5764 18.3919 10.1538 18.0255 9.4153 18.0255C8.74129 18.0255 8.08299 18.3024 7.385 18.6033L7.41725 18.7584C7.47432 19.0104 7.5719 19.1895 7.80677 19.1895C7.91263 19.1895 8.01849 19.1414 8.07555 19.1248C8.46507 19.0021 8.74873 18.896 9.14735 18.896C9.75602 18.896 10.048 19.255 10.4623 20.1338L10.6169 20.4596C10.1943 20.6063 9.20358 20.6793 8.46507 20.6793H8.11607L8.17314 21.0291C8.19712 21.1759 8.25418 21.2978 8.37575 21.355C8.5213 21.4279 8.73302 21.4362 9.09855 21.4362C10.024 21.4362 10.698 21.3226 11.0875 21.224C12.0865 22.7146 13.4585 23.2842 14.7826 23.2842C15.9106 23.2842 17.056 22.8688 18.1526 22.2669L17.9492 21.5258Z" fill="white"/>
<path d="M19.0532 21.8926L18.8589 21.1431C20.5311 20.2403 22.0577 19.5157 24.4941 19.2794C24.5429 20.2154 24.4775 21.396 25.1681 21.396C25.8007 21.396 27.181 19.7594 28.773 17.7083C28.9194 17.8468 29.1542 17.9935 29.366 18.156L28.9599 18.685C27.4084 20.6879 26.0852 22.3975 24.9969 22.3975C23.9822 22.3975 23.6001 21.2003 23.5844 20.3049C22.0337 20.46 20.5716 20.9806 19.0532 21.8926Z" fill="white"/>
<path d="M40.5388 5.55543C39.9053 5.55543 39.7267 5.20474 39.7267 4.70896C39.7267 3.68342 40.3685 2.21019 40.7745 1.37118H39.7912C39.2801 2.36439 37.2664 5.54714 36.178 6.86616L36.8033 7.54102C37.3879 6.89021 38.0297 5.78342 38.7277 4.69238H38.8575C38.8575 4.74959 38.8501 4.81425 38.8501 4.87146C38.8501 5.79171 39.3207 6.47485 40.4818 6.47485C41.1963 6.47485 42.3169 6.1167 43.373 5.75855C44.2496 5.4576 45.0534 5.14836 45.4512 5.03478V4.05815C44.9964 4.19578 44.071 4.55393 43.1125 4.88804C42.106 5.2379 41.1153 5.55543 40.5388 5.55543Z" fill="white"/>
<path d="M42.7067 8.50956C43.6809 8.09504 45.4267 7.39448 46.434 7.02804V6.03483C44.412 6.7843 40.8633 8.25753 38.4435 9.57656C38.5088 9.65698 38.9314 10.2514 38.9794 10.3252C40.0024 9.90155 40.9204 9.62464 41.7482 9.62464C42.9101 9.62464 43.8595 9.62464 45.4515 9.24991V8.50127C44.5583 8.6646 43.6081 8.85943 42.9912 8.85943C42.6256 8.85943 42.5198 8.81051 42.5198 8.68864C42.5198 8.61568 42.5686 8.56677 42.7067 8.50956Z" fill="white"/>
<path d="M21.9033 13.0845L21.513 13.834H25.6629L25.3544 13.0845H21.9033Z" fill="white"/>
<path d="M6.95447 17.5542C7.39279 17.5542 7.75005 17.4075 8.09161 17.2698C8.41579 17.1389 8.7408 17.0087 9.17912 17.0087C10.2187 17.0087 11.5013 17.5136 12.6302 17.9936C12.6955 18.0185 12.7683 18.0342 12.8411 18.0342C13.0206 18.0342 13.1587 17.953 13.2472 17.7822L13.3935 17.5136C12.1514 16.789 10.1699 16.0155 9.13859 16.0155C8.66803 16.0155 8.32647 16.1382 8.00229 16.2675C7.63675 16.4151 7.32001 16.5693 6.98673 16.5693C6.16717 16.5693 4.06409 15.7552 4.06409 14.9659C4.06409 14.0382 7.40933 13.68 7.77486 13.68L8.10732 12.9223C5.68006 12.9223 2.78885 13.777 2.78885 14.9087C2.78885 15.2345 2.97576 15.397 2.97576 15.698C2.97576 16.105 2.78885 16.3819 2.78885 16.8379C2.78885 17.1389 2.96749 17.5219 3.17837 17.856C3.4058 18.2058 3.67375 18.433 3.67375 18.7265C3.67375 18.9462 3.5282 19.2065 3.5282 19.7197C3.5282 20.8182 4.15341 21.4864 5.37076 22.7963L5.61473 23.0567C4.60826 23.448 2.73179 24.2621 2.29348 24.4486C0.775097 25.0837 0.393848 25.8572 0.393848 27.0784C0.393848 27.5501 0.393848 28.0874 0.426102 28.5674H0.718034C1.32754 28.5674 1.40031 28.2018 1.40031 27.8519C1.40031 27.6156 1.39204 27.347 1.39204 27.0535C1.40031 26.3787 1.42512 25.776 2.51263 25.2876C2.95177 25.092 5.10281 24.2132 6.70307 23.5292C7.17363 23.3253 7.61194 23.1545 8.09905 23.1545C8.64322 23.1545 9.26843 23.3908 10.0483 23.855C10.7058 24.2455 11.3963 24.7745 11.9405 25.3846L12.6302 24.8557C12.0372 24.156 11.2177 23.5292 10.3973 23.0409C9.57691 22.5526 8.84666 22.2674 8.22972 22.2674C7.96177 22.2674 7.74261 22.3163 7.55571 22.3652C7.33655 22.4224 7.13311 22.4871 6.87343 22.4871C6.57323 22.4871 6.32099 22.4141 5.95545 21.9905C5.81734 21.8363 4.94072 20.8348 4.75382 20.5421C4.6645 20.4037 4.50241 20.1268 4.50241 19.801C4.50241 19.6625 4.52639 19.5 4.60826 19.3533C5.36249 19.9394 6.29701 20.2976 7.43331 20.436L7.27949 19.6625C5.64698 19.2314 3.90944 17.7905 3.90944 16.8628C3.90944 16.6671 3.95824 16.5287 4.03184 16.3579C4.6645 16.944 6.15063 17.5542 6.95447 17.5542Z" fill="white"/>
<path d="M18.6394 17.701C19.6624 16.9764 20.7176 16.8951 21.5703 16.8951C22.0822 16.8951 22.6826 16.9681 23.3161 17.0493C23.828 17.1148 24.2903 17.1637 24.8427 17.1637C25.955 17.1637 27.0756 16.7567 27.5627 16.5444C27.7009 16.716 27.9365 16.944 28.1235 17.1065C27.8878 17.2533 26.3942 18.0666 24.8675 18.0666C24.1935 18.0666 23.5518 17.9862 22.9993 17.9124C22.5122 17.8477 21.9846 17.7905 21.4727 17.7905C20.9128 17.7905 19.7839 17.953 19.0859 18.2871L18.6394 17.701Z" fill="white"/>
<path d="M33.7179 20.607C32.4998 23.1796 30.6481 25.0516 28.7485 26.1343C27.847 26.6467 27.0349 26.9808 25.2817 26.9808H21.489C20.1336 26.9808 19.2809 27.1599 18.6152 27.3306C17.8998 27.518 17.4458 27.7045 16.723 27.7045C15.6512 27.7045 14.6604 27.1756 14.1816 26.6715L15.0748 25.9635L14.6282 25.3683C14.3685 25.5565 11.1936 27.9085 10.5271 28.4374L10.4866 28.4134C10.5031 28.2509 10.5031 28.1041 10.5031 27.9574C10.5031 26.1666 9.67444 25.7347 8.41656 25.2306L7.56392 25.7347C9.29319 26.3134 9.72323 26.7768 9.72323 28.071C9.72323 29.0974 9.35769 29.5036 8.83006 29.8137C8.28589 30.1312 7.61189 30.2771 7.01975 30.2771C6.76751 30.2771 6.65421 30.326 6.5649 30.4156C6.46731 30.5134 6.41852 30.6601 6.41852 30.8632V31.1484H6.62196C7.70947 31.1484 8.71676 30.9777 9.82082 30.1063L13.4183 27.29C13.9294 27.8762 15.2212 28.6903 16.747 28.6903C17.6079 28.6903 18.1603 28.478 18.9559 28.2749C19.5729 28.1199 20.1741 27.9814 21.489 27.9814H25.2974C27.2466 27.9814 28.1886 27.5744 29.2273 26.9891C31.485 25.719 33.4095 23.57 34.4978 21.1028C34.2133 20.9245 33.9454 20.7612 33.7179 20.607Z" fill="white"/>
<path d="M27.6037 23.6674C28.5861 22.0881 29.4628 20.6878 31.6146 19.5487C31.3872 19.4102 31.063 19.1988 30.8918 19.0844C30.0557 19.4508 29.2279 20.1829 28.5216 20.9241C26.8974 22.617 27.0429 23.5936 25.3302 24.2536C24.8993 24.4161 24.3717 24.5951 23.6977 24.7502C23.2999 23.5207 22.3017 22.2995 21.2456 22.2995C20.5146 22.2995 19.6702 22.6817 18.696 23.1136C17.5514 23.6185 16.5036 24.1964 16.1711 24.4161L16.6177 25.0188C16.9584 24.8306 17.9409 24.3423 18.9234 23.9194C19.7761 23.553 20.5476 23.2521 21.067 23.2521C21.9031 23.2521 22.4473 24.2046 22.7483 24.969C21.6517 25.2302 19.8488 25.2949 19.3055 25.2949C19.0533 25.2949 18.9639 25.3355 18.8746 25.4093C18.7936 25.4822 18.7282 25.6124 18.6877 25.7915L18.6232 26.0684H19.2071C22.2447 26.0684 25.1111 25.5883 26.9536 24.465C27.2141 24.5388 27.4416 24.5868 27.7335 24.5868C28.7887 24.5868 29.8771 24.009 30.5594 23.48C30.8025 23.2927 30.8596 23.1211 30.8596 22.9345C30.8596 22.845 30.8513 22.7637 30.843 22.6817L30.8108 22.365C29.8366 23.1376 29.0244 23.7163 28.018 23.7163C27.8393 23.7163 27.7095 23.6997 27.6037 23.6674Z" fill="white"/>
</g>
<defs>
<clipPath id="clip0_589_7803">
<rect width="118" height="34" fill="white"/>
</clipPath>
</defs>
</svg>
